<?xml version="1.0" encoding="utf-8"?><svg id="crown_logo_animation_ActionScript3.0" image-rendering="auto" baseProfile="basic" version="1.1" x="0px" y="0px" width="55" height="28" xmlns="http://www.w3.org/2000/svg" xmlns:xlink="http://www.w3.org/1999/xlink"><defs><g id="b4" overflow="visible"><path fill="#EAA92B" stroke="none" d="M1.5 3.05Q2.15 3.05 2.6 2.6 3.05 2.15 3.05 1.5 3.05 .85 2.6 .45 2.15 0 1.5 0 .85 0 .45 .45 0 .85 0 1.5 0 2.15 .45 2.6 .85 3.05 1.5 3.05Z"/></g></defs><g id="animated-hat-svg" overflow="visible"><g display="none" id="Layer70_0_FILL"><path fill="#B62121" stroke="none" d="M2.2 5.85Q5.95 7.15 9 14.4 11.3 19.65 12.85 27.45L12.85 27.65 24.15 25.6 24.05 25.35Q19.65 14.25 12.9 9.2 7.75 5.35 2.25 5.45 2.2 5.45 2.2 5.85Z"/><animate attributeName="display" fill="freeze" repeatCount="1" dur="1s" keyTimes="0;.75;.792;1" values="none;inline;none;none"/></g><g display="none" id="Layer69_0_FILL"><path fill="#B62121" stroke="none" d="M2.4 5.65Q6.15 6.95 9.15 14.3 11.2 19.35 12.85 27.45L12.85 27.65 24.15 25.6 24.05 25.35Q19.65 14.25 13.05 9.15 8 5.25 2.45 5.25 2.4 5.25 2.4 5.65Z"/><animate attributeName="display" fill="freeze" repeatCount="1" dur="1s" keyTimes="0;.708;.75;1" values="none;inline;none;none"/></g><g display="none" id="Layer68_0_FILL"><path fill="#B62121" stroke="none" d="M2.65 5.45Q6.4 6.75 9.25 14.2 11.15 19 12.85 27.45L12.85 27.65 24.15 25.6 24.05 25.35Q19.6 14.2 13.15 9.1 8.2 5.2 2.7 5.05 2.65 5.05 2.65 5.45Z"/><animate attributeName="display" fill="freeze" repeatCount="1" dur="1s" keyTimes="0;.667;.708;1" values="none;inline;none;none"/></g><g display="none" id="Layer67_0_FILL"><path fill="#B62121" stroke="none" d="M2.85 5.25Q6.6 6.55 9.4 14.1 11.05 18.7 12.85 27.45L12.85 27.65 24.15 25.6 24.05 25.35Q19.6 14.2 13.3 9.05 8.45 5.1 2.9 4.85 2.85 4.85 2.85 5.25Z"/><animate attributeName="display" fill="freeze" repeatCount="1" dur="1s" keyTimes="0;.625;.667;1" values="none;inline;none;none"/></g><g display="none" id="Layer66_0_FILL"><path fill="#B62121" stroke="none" d="M9.5 13.95Q11 18.3 12.85 27.4L12.85 27.6 24.15 25.55 24.05 25.3Q19.6 14.15 13.4 8.95 8.65 5 3.15 4.6 3.1 4.6 3.1 5 6.8 6.3 9.5 13.95Z"/><animate attributeName="display" fill="freeze" repeatCount="1" dur="1s" keyTimes="0;.583;.625;1" values="none;inline;none;none"/></g><g display="none" id="Layer65_0_FILL"><path fill="#B62121" stroke="none" d="M2.9 5.5Q6.5 6.6 9.35 14.1 11.1 18.75 12.85 27.4L12.85 27.6 24.15 25.55 24.05 25.3Q19.6 14.15 13.25 9.1 8.4 5.2 2.95 5.1 2.85 5.2 2.9 5.5Z"/><animate attributeName="display" fill="freeze" repeatCount="1" dur="1s" keyTimes="0;.542;.583;1" values="none;inline;none;none"/></g><g display="none" id="Layer64_0_FILL"><path fill="#B62121" stroke="none" d="M2.7 6Q6.2 6.9 9.15 14.25 11.2 19.15 12.85 27.4L12.85 27.6 24.15 25.55 24.05 25.3Q19.6 14.15 13.15 9.2 8.15 5.4 2.75 5.6 2.65 5.8 2.7 6Z"/><animate attributeName="display" fill="freeze" repeatCount="1" dur="1s" keyTimes="0;.5;.542;1" values="none;inline;none;none"/></g><g display="none" id="Layer63_0_FILL"><path fill="#B62121" stroke="none" d="M2.45 6.55Q5.9 7.25 9 14.35 11.25 19.6 12.85 27.4L12.85 27.6 24.15 25.55 24.05 25.3Q19.6 14.2 13 9.35 7.85 5.65 2.5 6.15 2.4 6.35 2.45 6.55Z"/><animate attributeName="display" fill="freeze" repeatCount="1" dur="1s" keyTimes="0;.458;.5;1" values="none;inline;none;none"/></g><g display="none" id="Layer62_0_FILL"><path fill="#B62121" stroke="none" d="M2.25 7.1Q5.6 7.6 8.8 14.55 11.35 20.05 12.85 27.45L12.85 27.65 24.15 25.6 24.05 25.35Q19.6 14.25 12.9 9.5 7.6 5.9 2.3 6.7 2.2 7 2.25 7.1Z"/><animate attributeName="display" fill="freeze" repeatCount="1" dur="1s" keyTimes="0;.417;.458;1" values="none;inline;none;none"/></g><g display="none" id="Layer61_0_FILL"><path fill="#B62121" stroke="none" d="M8.65 14.7Q11.45 20.5 12.85 27.45L12.85 27.65 24.15 25.6 24.05 25.35Q19.6 14.25 12.75 9.65 7.35 6.1 2.1 7.2 1.95 7.6 2.05 7.6 5.3 7.9 8.65 14.7Z"/><animate attributeName="display" fill="freeze" repeatCount="1" dur="1s" keyTimes="0;.375;.417;1" values="none;inline;none;none"/></g><g display="none" id="Layer60_0_FILL"><path fill="#B62121" stroke="none" d="M2.05 7.25Q5.4 7.75 8.7 14.6 11.45 20.35 12.85 27.4L12.85 27.6 24.15 25.55 24.05 25.3Q19.6 14.2 12.75 9.5 7.4 5.9 2.1 6.85 1.95 7.15 2.05 7.25Z"/><animate attributeName="display" fill="freeze" repeatCount="1" dur="1s" keyTimes="0;.333;.375;1" values="none;inline;none;none"/></g><g display="none" id="Layer59_0_FILL"><path fill="#B62121" stroke="none" d="M2 7Q5.5 7.7 8.75 14.6 11.4 20.3 12.85 27.45L12.85 27.65 24.15 25.6 24.05 25.35Q19.6 14.25 12.75 9.5 7.45 5.8 2.05 6.6 1.95 6.8 2 7Z"/><animate attributeName="display" fill="freeze" repeatCount="1" dur="1s" keyTimes="0;.292;.333;1" values="none;inline;none;none"/></g><g display="none" id="Layer58_0_FILL"><path fill="#B62121" stroke="none" d="M2 6.6Q5.55 7.5 8.8 14.55 11.4 20.15 12.85 27.4L12.85 27.6 24.15 25.55 24.05 25.3Q19.65 14.2 12.8 9.35 7.45 5.65 2.05 6.2 1.95 6.4 2 6.6Z"/><animate attributeName="display" fill="freeze" repeatCount="1" dur="1s" keyTimes="0;.25;.292;1" values="none;inline;none;none"/></g><g display="none" id="Layer57_0_FILL"><path fill="#B62121" stroke="none" d="M1.95 6.35Q5.65 7.45 8.85 14.55 11.35 20.1 12.85 27.45L12.85 27.65 24.15 25.6 24.05 25.35Q19.65 14.25 12.8 9.35 7.5 5.55 2 5.95 1.95 6.05 1.95 6.35Z"/><animate attributeName="display" fill="freeze" repeatCount="1" dur="1s" keyTimes="0;.208;.25;1" values="none;inline;none;none"/></g><g display="none" id="Layer56_0_FILL"><path fill="#B62121" stroke="none" d="M8.9 14.45Q11.35 19.95 12.85 27.4L12.85 27.6 24.15 25.55 24.05 25.3Q19.65 14.2 12.8 9.2 7.55 5.35 2 5.6 1.95 5.6 1.95 6 5.75 7.3 8.9 14.45Z"/><animate attributeName="display" fill="freeze" repeatCount="1" dur="1s" keyTimes="0;.167;.208;.792;1" values="none;inline;none;inline;inline"/></g><g id="Layer55_0_FILL"><path fill="#B62121" stroke="none" d="M8.9 14.45Q11.35 19.95 12.85 27.4L12.85 27.6 24.15 25.55 24.05 25.3Q19.65 14.2 12.8 9.2 7.55 5.35 2 5.6 1.95 5.6 1.95 6 5.75 7.3 8.9 14.45Z"/><animate attributeName="display" fill="freeze" repeatCount="1" dur="1s" keyTimes="0;.167;1" values="inline;none;none"/></g><g display="none" id="Layer53_0_FILL"><path fill="#53FC18" stroke="none" d="M15.9 9.3Q19.25 15.75 20.15 25.65L20.15 25.85 31.55 24.7 31.5 24.5Q27.9 13.3 21.55 7.75 16.55 3.45 11.05 3.35L11 3.75Q13.4 4.5 15.9 9.3Z"/><animate attributeName="display" fill="freeze" repeatCount="1" dur="1s" keyTimes="0;.75;.792;1" values="none;inline;none;none"/></g><g display="none" id="Layer52_0_FILL"><path fill="#53FC18" stroke="none" d="M15.9 9.4Q19.25 15.7 20.15 25.65L20.15 25.85 31.55 24.7 31.5 24.5Q27.9 13.25 21.55 7.8 16.5 3.55 11 3.65L10.95 4.05Q13.35 4.65 15.9 9.4Z"/><animate attributeName="display" fill="freeze" repeatCount="1" dur="1s" keyTimes="0;.708;.75;1" values="none;inline;none;none"/></g><g display="none" id="Layer51_0_FILL"><path fill="#53FC18" stroke="none" d="M15.9 9.55Q19.25 15.7 20.15 25.65L20.15 25.85 31.55 24.7 31.5 24.5Q27.9 13.25 21.5 7.9 16.5 3.7 11 3.9L10.95 4.3Q13.35 4.85 15.9 9.55Z"/><animate attributeName="display" fill="freeze" repeatCount="1" dur="1s" keyTimes="0;.667;.708;1" values="none;inline;none;none"/></g><g display="none" id="Layer50_0_FILL"><path fill="#53FC18" stroke="none" d="M15.9 9.65Q19.25 15.65 20.15 25.65L20.15 25.85 31.55 24.7 31.5 24.5Q27.9 13.2 21.5 7.95 16.45 3.8 10.95 4.2L10.9 4.6Q13.3 5 15.9 9.65Z"/><animate attributeName="display" fill="freeze" repeatCount="1" dur="1s" keyTimes="0;.625;.667;1" values="none;inline;none;none"/></g><g display="none" id="Layer49_0_FILL"><path fill="#53FC18" stroke="none" d="M15.9 9.75Q19.25 15.65 20.15 25.65L20.15 25.85 31.55 24.7 31.5 24.5Q27.9 13.2 21.5 8.05 16.45 3.95 10.9 4.5L10.85 4.9Q13.3 5.2 15.9 9.75Z"/><animate attributeName="display" fill="freeze" repeatCount="1" dur="1s" keyTimes="0;.583;.625;1" values="none;inline;none;none"/></g><g display="none" id="Layer48_0_FILL"><path fill="#53FC18" stroke="none" d="M16 9.55Q19.25 15.65 20.15 25.65L20.15 25.85 31.55 24.7 31.5 24.5Q27.9 13.2 21.6 7.9 16.65 3.65 11.15 4.05L11.1 4.45Q13.5 4.85 16 9.55Z"/><animate attributeName="display" fill="freeze" repeatCount="1" dur="1s" keyTimes="0;.542;.583;1" values="none;inline;none;none"/></g><g display="none" id="Layer47_0_FILL"><path fill="#53FC18" stroke="none" d="M16.15 9.35Q19.25 15.6 20.15 25.65L20.15 25.85 31.55 24.7 31.5 24.5Q27.9 13.15 21.75 7.75 16.8 3.35 11.45 3.6L11.4 4Q13.7 4.5 16.15 9.35Z"/><animate attributeName="display" fill="freeze" repeatCount="1" dur="1s" keyTimes="0;.5;.542;1" values="none;inline;none;none"/></g><g display="none" id="Layer46_0_FILL"><path fill="#53FC18" stroke="none" d="M16.25 9.2Q19.25 15.6 20.15 25.65L20.15 25.85 31.55 24.7 31.5 24.5Q27.85 13.15 21.85 7.55 17 3.05 11.7 3.15L11.65 3.55Q13.85 4.1 16.25 9.2Z"/><animate attributeName="display" fill="freeze" repeatCount="1" dur="1s" keyTimes="0;.458;.5;1" values="none;inline;none;none"/></g><g display="none" id="Layer45_0_FILL"><path fill="#53FC18" stroke="none" d="M16.4 9Q19.25 15.55 20.15 25.65L20.15 25.85 31.55 24.7 31.5 24.5Q27.85 13.1 22 7.4 17.15 2.75 12 2.7L11.95 3.1Q14.05 3.75 16.4 9Z"/><animate attributeName="display" fill="freeze" repeatCount="1" dur="1s" keyTimes="0;.417;.458;1" values="none;inline;none;none"/></g><g display="none" id="Layer44_0_FILL"><path fill="#53FC18" stroke="none" d="M16.5 8.8Q19.25 15.55 20.15 25.65L20.15 25.85 31.55 24.7 31.5 24.5Q27.85 13.1 22.1 7.25 17.35 2.45 12.25 2.25L12.2 2.65Q14.25 3.4 16.5 8.8Z"/><animate attributeName="display" fill="freeze" repeatCount="1" dur="1s" keyTimes="0;.375;.417;1" values="none;inline;none;none"/></g><g display="none" id="Layer43_0_FILL"><path fill="#53FC18" stroke="none" d="M16.4 8.9Q19.25 15.6 20.15 25.65L20.15 25.85 31.55 24.7 31.5 24.5Q27.85 13.15 22 7.35 17.2 2.6 12 2.4L11.95 2.8Q14.1 3.6 16.4 8.9Z"/><animate attributeName="display" fill="freeze" repeatCount="1" dur="1s" keyTimes="0;.333;.375;1" values="none;inline;none;none"/></g><g display="none" id="Layer42_0_FILL"><path fill="#53FC18" stroke="none" d="M16.25 8.95Q19.25 15.65 20.15 25.65L20.15 25.85 31.55 24.7 31.5 24.5Q27.85 13.2 21.9 7.4 17.05 2.8 11.8 2.55L11.75 2.95Q13.9 3.75 16.25 8.95Z"/><animate attributeName="display" fill="freeze" repeatCount="1" dur="1s" keyTimes="0;.292;.333;1" values="none;inline;none;none"/></g><g display="none" id="Layer41_0_FILL"><path fill="#53FC18" stroke="none" d="M16.15 9.05Q19.25 15.65 20.15 25.65L20.15 25.85 31.55 24.7 31.5 24.5Q27.9 13.2 21.75 7.5 16.85 2.95 11.55 2.75L11.5 3.15Q13.75 3.95 16.15 9.05Z"/><animate attributeName="display" fill="freeze" repeatCount="1" dur="1s" keyTimes="0;.25;.292;1" values="none;inline;none;none"/></g><g display="none" id="Layer40_0_FILL"><path fill="#53FC18" stroke="none" d="M16 9.1Q19.25 15.7 20.15 25.65L20.15 25.85 31.55 24.7 31.5 24.5Q27.9 13.25 21.65 7.55 16.7 3.15 11.35 2.9L11.3 3.3Q13.55 4.1 16 9.1Z"/><animate attributeName="display" fill="freeze" repeatCount="1" dur="1s" keyTimes="0;.208;.25;1" values="none;inline;none;none"/></g><g display="none" id="Layer39_0_FILL"><path fill="#53FC18" stroke="none" d="M15.9 9.2Q19.25 15.75 20.15 25.65L20.15 25.85 31.55 24.7 31.5 24.5Q27.9 13.3 21.55 7.65 16.55 3.3 11.1 3.05L11.05 3.45Q13.4 4.3 15.9 9.2Z"/><animate attributeName="display" fill="freeze" repeatCount="1" dur="1s" keyTimes="0;.167;.208;.792;1" values="none;inline;none;inline;inline"/></g><g id="Layer38_0_FILL"><path fill="#53FC18" stroke="none" d="M15.9 9.2Q19.25 15.75 20.15 25.65L20.15 25.85 31.55 24.7 31.5 24.5Q27.9 13.3 21.55 7.65 16.55 3.3 11.1 3.05L11.05 3.45Q13.4 4.3 15.9 9.2Z"/><animate attributeName="display" fill="freeze" repeatCount="1" dur="1s" keyTimes="0;.167;1" values="inline;none;none"/></g><g display="none" id="Layer36_0_FILL"><path fill="#58E236" stroke="none" d="M45.85 14.35Q49.1 6.7 52.9 5.95 53.1 5.9 53 5.6 49.6 5.05 45.15 7.15 36.15 11.45 30.7 24.9L30.65 25.15 41.9 27.2 41.95 27Q43.4 19.9 45.85 14.35Z"/><animate attributeName="display" fill="freeze" repeatCount="1" dur="1s" keyTimes="0;.75;.792;1" values="none;inline;none;none"/></g><g display="none" id="Layer35_0_FILL"><path fill="#58E236" stroke="none" d="M45.65 14.65Q48.85 7.25 52.9 6.35 53.1 6.3 53 6 49.6 5.35 45.15 7.4 36.15 11.5 30.7 24.95L30.65 25.2 41.9 27.25 41.95 27.05Q43.45 19.7 45.65 14.65Z"/><animate attributeName="display" fill="freeze" repeatCount="1" dur="1s" keyTimes="0;.708;.75;1" values="none;inline;none;none"/></g><g display="none" id="Layer34_0_FILL"><path fill="#58E236" stroke="none" d="M45.45 14.9Q48.5 7.65 52.8 6.6 53 6.55 52.9 6.25 49.55 5.55 45.05 7.5 36.1 11.45 30.65 24.9L30.6 25.15 41.85 27.2 41.9 27Q43.45 19.45 45.45 14.9Z"/><animate attributeName="display" fill="freeze" repeatCount="1" dur="1s" keyTimes="0;.667;.708;1" values="none;inline;none;none"/></g><g display="none" id="Layer33_0_FILL"><path fill="#58E236" stroke="none" d="M45.25 15.2Q48.25 8.2 52.8 7 53 6.95 52.9 6.65 49.55 5.85 45.05 7.75 36.1 11.5 30.65 24.95L30.6 25.2 41.85 27.25 41.9 27.05Q43.5 19.25 45.25 15.2Z"/><animate attributeName="display" fill="freeze" repeatCount="1" dur="1s" keyTimes="0;.625;.667;1" values="none;inline;none;none"/></g><g display="none" id="Layer32_0_FILL"><path fill="#58E236" stroke="none" d="M41.9 27.05Q43.55 19.05 45.1 15.45 47.95 8.7 52.8 7.35 53 7.3 52.9 7 49.55 6.1 45.05 7.9 36.1 11.5 30.65 24.95L30.6 25.2 41.85 27.25 41.9 27.05Z"/><animate attributeName="display" fill="freeze" repeatCount="1" dur="1s" keyTimes="0;.583;.625;1" values="none;inline;none;none"/></g><g display="none" id="Layer31_0_FILL"><path fill="#58E236" stroke="none" d="M45.25 15.15Q48.15 8.1 52.7 6.9 52.9 6.85 52.8 6.55 49.4 5.8 44.9 7.75 35.9 11.6 30.7 24.95L30.65 25.2 41.9 27.25 41.95 27.05Q43.6 19.1 45.25 15.15Z"/><animate attributeName="display" fill="freeze" repeatCount="1" dur="1s" keyTimes="0;.542;.583;1" values="none;inline;none;none"/></g><g display="none" id="Layer30_0_FILL"><path fill="#58E236" stroke="none" d="M45.35 14.8Q48.25 7.5 52.55 6.45 52.75 6.4 52.65 6.1 49.15 5.5 44.65 7.55 35.65 11.7 30.7 24.95L30.65 25.2 41.9 27.25 41.95 27.05Q43.6 19.1 45.35 14.8Z"/><animate attributeName="display" fill="freeze" repeatCount="1" dur="1s" keyTimes="0;.5;.542;1" values="none;inline;none;none"/></g><g display="none" id="Layer29_0_FILL"><path fill="#58E236" stroke="none" d="M45.4 14.45Q48.4 6.8 52.4 5.9 52.6 5.85 52.5 5.55 48.95 5.1 44.45 7.35 35.4 11.7 30.7 24.9L30.65 25.15 41.9 27.2 41.95 27Q43.55 19.1 45.4 14.45Z"/><animate attributeName="display" fill="freeze" repeatCount="1" dur="1s" keyTimes="0;.458;.5;1" values="none;inline;none;none"/></g><g display="none" id="Layer28_0_FILL"><path fill="#58E236" stroke="none" d="M45.5 14.1Q48.5 6.2 52.25 5.45 52.45 5.4 52.35 5.1 48.7 4.8 44.2 7.15 35.15 11.8 30.7 24.9L30.65 25.15 41.9 27.2 41.95 27Q43.55 19.1 45.5 14.1Z"/><animate attributeName="display" fill="freeze" repeatCount="1" dur="1s" keyTimes="0;.417;.458;1" values="none;inline;none;none"/></g><g display="none" id="Layer27_0_FILL"><path fill="#58E236" stroke="none" d="M41.95 27.05Q43.55 19.2 45.6 13.85 48.65 5.65 52.1 5.05 52.3 5 52.2 4.7 48.5 4.55 44 7.05 34.9 11.95 30.7 24.95L30.65 25.2 41.9 27.25 41.95 27.05Z"/><animate attributeName="display" fill="freeze" repeatCount="1" dur="1s" keyTimes="0;.375;.417;1" values="none;inline;none;none"/></g><g display="none" id="Layer26_0_FILL"><path fill="#58E236" stroke="none" d="M41.95 27.05Q43.5 19.4 45.7 13.9 48.8 5.75 52.25 5.15 52.45 5.1 52.35 4.8 48.7 4.6 44.25 7.05 35.15 11.85 30.7 24.95L30.65 25.2 41.9 27.25 41.95 27.05Z"/><animate attributeName="display" fill="freeze" repeatCount="1" dur="1s" keyTimes="0;.333;.375;1" values="none;inline;none;none"/></g><g display="none" id="Layer25_0_FILL"><path fill="#58E236" stroke="none" d="M41.95 27.05Q43.45 19.6 45.75 13.95 48.95 5.9 52.4 5.3 52.6 5.25 52.5 4.95 48.95 4.65 44.45 7.05 35.4 11.75 30.7 24.95L30.65 25.2 41.9 27.25 41.95 27.05Z"/><animate attributeName="display" fill="freeze" repeatCount="1" dur="1s" keyTimes="0;.292;.333;1" values="none;inline;none;none"/></g><g display="none" id="Layer24_0_FILL"><path fill="#58E236" stroke="none" d="M45.85 14.05Q49.1 6 52.6 5.4 52.8 5.35 52.7 5.05 49.15 4.75 44.7 7.05 35.65 11.7 30.7 24.95L30.65 25.2 41.9 27.25 41.95 27.05Q43.45 19.75 45.85 14.05Z"/><animate attributeName="display" fill="freeze" repeatCount="1" dur="1s" keyTimes="0;.25;.292;1" values="none;inline;none;none"/></g><g display="none" id="Layer23_0_FILL"><path fill="#58E236" stroke="none" d="M45.9 14.1Q49.25 6.15 52.75 5.55 52.95 5.5 52.85 5.2 49.4 4.8 44.9 7.05 35.9 11.6 30.7 24.95L30.65 25.2 41.9 27.25 41.95 27.05Q43.4 19.95 45.9 14.1Z"/><animate attributeName="display" fill="freeze" repeatCount="1" dur="1s" keyTimes="0;.208;.25;1" values="none;inline;none;none"/></g><g display="none" id="Layer22_0_FILL"><path fill="#58E236" stroke="none" d="M41.95 27.05Q43.35 20.15 46 14.15 49.4 6.25 52.9 5.65 53.1 5.6 53 5.3 49.6 4.85 45.15 7.05 36.15 11.5 30.7 24.95L30.65 25.2 41.9 27.25 41.95 27.05Z"/><animate attributeName="display" fill="freeze" repeatCount="1" dur="1s" keyTimes="0;.167;.208;.792;1" values="none;inline;none;inline;inline"/></g><g id="Layer21_0_FILL"><path fill="#58E236" stroke="none" d="M41.95 27.05Q43.35 20.15 46 14.15 49.4 6.25 52.9 5.65 53.1 5.6 53 5.3 49.6 4.85 45.15 7.05 36.15 11.5 30.7 24.95L30.65 25.2 41.9 27.25 41.95 27.05Z"/><animate attributeName="display" fill="freeze" repeatCount="1" dur="1s" keyTimes="0;.167;1" values="inline;none;none"/></g><g display="none" id="Layer18_0_FILL"><path fill="#B62121" stroke="none" d="M42.4 2.75Q42.8 2.4 42.35 2.35 33.6 3.7 28.25 13.3 25.2 18.8 24 25.35L23.95 25.6 35.4 25.85 35.4 25.65Q35.65 18.4 36.5 14.15 38.05 6.35 42.4 2.75Z"/><animate attributeName="display" fill="freeze" repeatCount="1" dur="1s" keyTimes="0;.75;.792;1" values="none;inline;none;none"/></g><g display="none" id="Layer17_0_FILL"><path fill="#B62121" stroke="none" d="M41.9 2.65Q42.3 2.25 41.85 2.25 33.1 3.9 27.95 13.4 25.2 18.6 23.95 25.35L23.9 25.6 35.35 25.85 35.35 25.65Q35.45 18.6 36.2 14.4 37.5 6.65 41.9 2.65Z"/><animate attributeName="display" fill="freeze" repeatCount="1" dur="1s" keyTimes="0;.708;.75;1" values="none;inline;none;none"/></g><g display="none" id="Layer16_0_FILL"><path fill="#B62121" stroke="none" d="M41.55 2.5Q41.95 2.15 41.5 2.1 32.65 4.05 27.8 13.55 25.25 18.35 24 25.35L23.95 25.6 35.4 25.85 35.4 25.65Q35.35 18.75 35.95 14.6 37.1 7 41.55 2.5Z"/><animate attributeName="display" fill="freeze" repeatCount="1" dur="1s" keyTimes="0;.667;.708;1" values="none;inline;none;none"/></g><g display="none" id="Layer15_0_FILL"><path fill="#B62121" stroke="none" d="M41.1 2.4Q41.5 2 41.05 2 32.2 4.25 27.55 13.65 25.3 18.15 24 25.35L23.95 25.6 35.4 25.85 35.4 25.65Q35.2 18.95 35.7 14.85 36.6 7.3 41.1 2.4Z"/><animate attributeName="display" fill="freeze" repeatCount="1" dur="1s" keyTimes="0;.625;.667;1" values="none;inline;none;none"/></g><g display="none" id="Layer14_0_FILL"><path fill="#B62121" stroke="none" d="M40.7 2.3Q41.05 1.9 40.65 1.9 31.75 4.4 27.3 13.75 25.35 17.9 24 25.35L23.95 25.6 35.4 25.85 35.4 25.65Q35.05 19.15 35.45 15.05 36.1 7.65 40.7 2.3Z"/><animate attributeName="display" fill="freeze" repeatCount="1" dur="1s" keyTimes="0;.583;.625;1" values="none;inline;none;none"/></g><g display="none" id="Layer13_0_FILL"><path fill="#B62121" stroke="none" d="M41.15 2.7Q41.55 2.35 41.1 2.3 32.25 4.55 27.55 13.8 25.3 18.25 24 25.35L23.95 25.6 35.4 25.85 35.4 25.65Q35.2 19.1 35.75 15 36.65 7.65 41.15 2.7Z"/><animate attributeName="display" fill="freeze" repeatCount="1" dur="1s" keyTimes="0;.542;.583;1" values="none;inline;none;none"/></g><g display="none" id="Layer12_0_FILL"><path fill="#B62121" stroke="none" d="M41.6 3.15Q42 2.75 41.55 2.75 32.75 4.7 27.8 13.85 25.25 18.6 24 25.35L23.95 25.6 35.4 25.85 35.4 25.65Q35.35 19.05 36 14.95 37.15 7.6 41.6 3.15Z"/><animate attributeName="display" fill="freeze" repeatCount="1" dur="1s" keyTimes="0;.5;.542;1" values="none;inline;none;none"/></g><g display="none" id="Layer11_0_FILL"><path fill="#B62121" stroke="none" d="M42.1 3.55Q42.5 3.2 42.05 3.15 33.2 4.8 28.1 13.9 25.15 18.9 24 25.35L23.95 25.6 35.4 25.85 35.4 25.65Q35.45 19.05 36.3 14.85 37.7 7.6 42.1 3.55Z"/><animate attributeName="display" fill="freeze" repeatCount="1" dur="1s" keyTimes="0;.458;.5;1" values="none;inline;none;none"/></g><g display="none" id="Layer10_0_FILL"><path fill="#B62121" stroke="none" d="M42.55 4Q42.95 3.6 42.5 3.6 33.7 4.95 28.35 13.95 25.1 19.25 24 25.35L23.95 25.6 35.4 25.85 35.4 25.65Q35.6 19 36.55 14.8 38.2 7.55 42.55 4Z"/><animate attributeName="display" fill="freeze" repeatCount="1" dur="1s" keyTimes="0;.417;.458;1" values="none;inline;none;none"/></g><g display="none" id="Layer9_0_FILL"><path fill="#B62121" stroke="none" d="M42.95 4.4Q43.4 4.05 42.9 4 34.15 5.1 28.55 14 25 19.6 23.95 25.35L23.9 25.6 35.35 25.85 35.35 25.65Q35.7 18.95 36.8 14.75 38.7 7.55 42.95 4.4Z"/><animate attributeName="display" fill="freeze" repeatCount="1" dur="1s" keyTimes="0;.375;.417;1" values="none;inline;none;none"/></g><g display="none" id="Layer8_0_FILL"><path fill="#B62121" stroke="none" d="M42.9 4.1Q43.35 3.75 42.85 3.7 34.1 4.8 28.55 13.85 25 19.5 23.95 25.35L23.9 25.6 35.35 25.85 35.35 25.65Q35.7 18.8 36.8 14.6 38.65 7.25 42.9 4.1Z"/><animate attributeName="display" fill="freeze" repeatCount="1" dur="1s" keyTimes="0;.333;.375;1" values="none;inline;none;none"/></g><g display="none" id="Layer7_0_FILL"><path fill="#B62121" stroke="none" d="M42.9 3.8Q43.35 3.45 42.85 3.4 34.15 4.5 28.55 13.7 25.1 19.4 24 25.35L23.95 25.6 35.4 25.85 35.4 25.65Q35.75 18.65 36.8 14.45 38.65 6.95 42.9 3.8Z"/><animate attributeName="display" fill="freeze" repeatCount="1" dur="1s" keyTimes="0;.292;.333;1" values="none;inline;none;none"/></g><g display="none" id="Layer6_0_FILL"><path fill="#B62121" stroke="none" d="M42.9 3.45Q43.35 3.1 42.85 3.05 34.1 4.15 28.55 13.5 25.1 19.25 24 25.35L23.95 25.6 35.4 25.85 35.4 25.65Q35.8 18.5 36.8 14.25 38.65 6.6 42.9 3.45Z"/><animate attributeName="display" fill="freeze" repeatCount="1" dur="1s" keyTimes="0;.25;.292;1" values="none;inline;none;none"/></g><g display="none" id="Layer5_0_FILL"><path fill="#B62121" stroke="none" d="M42.85 3.15Q43.3 2.8 42.8 2.75 34.1 3.85 28.5 13.35 25.15 19.15 24 25.35L23.95 25.6 35.4 25.85 35.4 25.65Q35.8 18.35 36.75 14.1 38.6 6.3 42.85 3.15Z"/><animate attributeName="display" fill="freeze" repeatCount="1" dur="1s" keyTimes="0;.208;.25;1" values="none;inline;none;none"/></g><g display="none" id="Layer4_0_FILL"><path fill="#B62121" stroke="none" d="M42.8 2.85Q43.25 2.5 42.75 2.45 34.05 3.55 28.5 13.2 25.15 19.05 24 25.35L23.95 25.6 35.4 25.85 35.4 25.65Q35.8 18.2 36.75 13.95 38.55 6 42.8 2.85Z"/><animate attributeName="display" fill="freeze" repeatCount="1" dur="1s" keyTimes="0;.167;.208;.792;1" values="none;inline;none;inline;inline"/></g><g id="Layer3_0_FILL"><path fill="#B62121" stroke="none" d="M42.8 2.85Q43.25 2.5 42.75 2.45 34.05 3.55 28.5 13.2 25.15 19.05 24 25.35L23.95 25.6 35.4 25.85 35.4 25.65Q35.8 18.2 36.75 13.95 38.55 6 42.8 2.85Z"/><animate attributeName="display" fill="freeze" repeatCount="1" dur="1s" keyTimes="0;.167;1" values="inline;none;none"/></g><use xlink:href="#b4" transform="translate(51.7 3.9)"><animateTransform attributeName="transform" additive="replace" type="translate" dur="1s" keyTimes="0;.167;.375;.583;.792;1" values="51.7,3.9;51.7,3.9;51,3.65;52,5.8;51.7,3.9;51.7,3.9" fill="freeze"/></use><use xlink:href="#b4" transform="translate(41.6 1)"><animateTransform attributeName="transform" additive="replace" type="translate" dur="1s" keyTimes="0;.167;.375;.583;.792;1" values="41.6,1;41.6,1;42.3,2.85;39.65,0;41.6,1;41.6,1" fill="freeze"/></use><use xlink:href="#b4" transform="translate(9.2 1.7)"><animateTransform attributeName="transform" additive="replace" type="translate" dur="1s" keyTimes="0;.167;.375;.583;.792;1" values="9.2,1.7;9.2,1.7;9.85,.7;9,3.15;9.2,1.7;9.2,1.7" fill="freeze"/></use><use xlink:href="#b4" transform="translate(.1 4.25)"><animateTransform attributeName="transform" additive="replace" type="translate" dur="1s" keyTimes="0;.167;.375;.583;.792;1" values=".1,4.25;.1,4.25;0,6.75;1.05,3.15;.1,4.25;.1,4.25" fill="freeze"/></use><g display="none" id="Layer2_0_FILL"><path fill="#EAA92B" stroke="none" d="M43.4 28.25L43.4 24.35 10.85 24.35 10.85 28.25 43.4 28.25Z"/><animate attributeName="display" fill="freeze" repeatCount="1" dur="1s" keyTimes="0;.958;1" values="none;inline;inline"/></g><g id="Layer1_0_FILL"><path fill="#EAA92B" stroke="none" d="M43.4 28.25L43.4 24.35 10.85 24.35 10.85 28.25 43.4 28.25Z"/><animate attributeName="display" fill="freeze" repeatCount="1" dur="1s" keyTimes="0;.958;1" values="inline;none;none"/></g></g></svg>