<svg xmlns="http://www.w3.org/2000/svg" width="69" height="69" viewBox="0 0 69 69"><title>icon_6</title><path d="M23.2469,45.5838V34.2305a1.2436,1.2436,0,0,1,1.2465-1.2465h3.7058a1.2436,1.2436,0,0,1,1.2465,1.2465v9.8036a1.2042,1.2042,0,0,0,1.516,1.1791h.0337A1.2633,1.2633,0,0,0,31.9387,44V29.8172a1.2436,1.2436,0,0,1,1.2465-1.2465h3.7059a1.2436,1.2436,0,0,1,1.2465,1.2465V41.0694a1.24,1.24,0,0,0,1.7518,1.1455,1.2652,1.2652,0,0,0,.7412-1.1455V25.3365A1.2436,1.2436,0,0,1,41.8771,24.09h3.7058a1.2436,1.2436,0,0,1,1.2465,1.2465V35.8813a1.23,1.23,0,0,0,2.0214.9433,33.8459,33.8459,0,0,0,4.7165-4.6155,3.9872,3.9872,0,0,0,.64-3.9416,20.7913,20.7913,0,0,0-19.54-12.9368A20.568,20.568,0,0,0,14.555,34.9043a20.017,20.017,0,0,0,2.0214,9.8373,3.9507,3.9507,0,0,0,3.9079,2.2235c.5391-.0337,1.0781-.1011,1.7182-.1685A1.1835,1.1835,0,0,0,23.2469,45.5838ZM55.4876,34.5c-3.2342,4.6154-12.6,14.9581-32.5776,17.8891A20.4844,20.4844,0,0,0,55.5213,35.8476C55.5213,35.3759,55.5213,34.938,55.4876,34.5Z"/></svg>