<svg xmlns="http://www.w3.org/2000/svg" width="69" height="69" viewBox="0 0 69 69"><title>icon_1-01</title><path d="M15.7541,45.2831l12.1875,4.816A1.2134,1.2134,0,0,0,29.625,49.01l-.0533-8.8062c31.0705,14.8426,20.3531,9.72,22.6687,10.8305A1.221,1.221,0,0,0,54,49.9821V25.2809c0-1.4178-3.0926-2.2947-12.3779-6.8769a1.4945,1.4945,0,0,0-1.0283-.2338c-1.0436,0-.5637-.2485-7.9752,11.3348-.6627-1.0451-1.3711-2.1705-2.14-3.3764-1.2492-1.9658-1.2492-1.9658-1.6681-2.1485-.0153-.0073-.03-.0073-.0457-.0146-.0077,0-.0153-.0074-.0229-.0074L16.7139,18.8644A1.2171,1.2171,0,0,0,15,19.9314v24.27A1.1706,1.1706,0,0,0,15.7541,45.2831ZM42.3914,43.77c1.44-2.134,3.8543-6.5553,9.1711-14.638V48.104ZM41.0432,20.7426c5.8195,2.8721,8.6455,4.1437,10.0318,4.816L40.5938,41.98c-1.0436-1.63-2.9708-4.626-6.5432-10.2313C38.59,24.6743,40.35,21.8023,41.0432,20.7426ZM37.2955,41.3148l-7.7238-3.72-.0229-.0073-.0533-8.5139C32.3215,33.4952,37.166,41.11,37.2955,41.3148ZM17.4375,21.7292l9.6053,4.0633L27.18,47.2708,17.4375,43.42Z"/></svg>