<svg xmlns="http://www.w3.org/2000/svg" width="69" height="69" viewBox="0 0 69 69"><title>icon_2</title><path d="M32.7156,50.47c-5.6788,0-10.1622-.9869-12.3075-2.7156l-.04-.0331-.04-.04a1.727,1.727,0,0,1-.4583-1.828l.02-.053a1.7813,1.7813,0,0,1,1.6207-1.1127,14.8583,14.8583,0,0,0,3.8722-.53,7.3654,7.3654,0,0,1-3.8789-4.4642,1.5931,1.5931,0,0,1,.5513-1.8479,1.67,1.67,0,0,1,.4849-.2451,10.9053,10.9053,0,0,1-2.1919-3.9343L20.335,33.62l-.0066-.0463a1.6424,1.6424,0,0,1,.7638-1.7618,1.6843,1.6843,0,0,1,.7838-.2186,8.2165,8.2165,0,0,1-.6244-1.9075,7.9853,7.9853,0,0,1,.85-5.3186l.2125-.4239a1.1763,1.1763,0,0,1,1.8863-.3047l.3853.3842a18.1129,18.1129,0,0,0,10.4478,5.716A8.2947,8.2947,0,0,1,37.2853,24.95a7.9108,7.9108,0,0,1,5.6324-2.4771h.0133a11.3568,11.3568,0,0,1,4.656,1.51c1.0029-.3245,2.2118-.8345,3.46-1.371a1.5893,1.5893,0,0,1,1.7667.3113,1.5475,1.5475,0,0,1,.3388,1.7022,7.2811,7.2811,0,0,1-.3122.7418,1.5787,1.5787,0,0,1,.4583.3179,1.701,1.701,0,0,1,.4251,1.5963l-.0133.053a6.4911,6.4911,0,0,1-2.6236,3.59C50.8947,41.74,42.7251,50.47,32.7156,50.47ZM22.321,46.6483c2.0191,1.1392,5.8781,1.8281,10.3946,1.8281a15.5942,15.5942,0,0,0,11.5438-5.2392,18.7207,18.7207,0,0,0,4.8486-12.73v-.053a1.1749,1.1749,0,0,1,.6244-1.04,4.2408,4.2408,0,0,0,1.8331-2.02,1.1714,1.1714,0,0,1-1.1291-1.848,5.9535,5.9535,0,0,0,.445-.702c-1.0826.45-2.1121.861-3.0021,1.1259a1.2736,1.2736,0,0,1-.9831-.1059A9.8867,9.8867,0,0,0,42.9376,24.46a6.1954,6.1954,0,0,0-5.9645,6.2657,1.18,1.18,0,0,1-1.4081,1.1525c-5.42-1.0663-8.6345-2.6626-11.9754-6.0074a5.8191,5.8191,0,0,0-.3852,3.4309A7.283,7.283,0,0,0,24.9313,32.64a1.1738,1.1738,0,0,1-1.1889,1.9075,5.6836,5.6836,0,0,1-1.096-.4173,9.9492,9.9492,0,0,0,3.4074,3.941,1.1737,1.1737,0,0,1-.7506,2.1393,5.1773,5.1773,0,0,1-1.5608-.3378A5.374,5.374,0,0,0,28.02,42.8994a1.1763,1.1763,0,0,1,.9631.9737,1.1643,1.1643,0,0,1-.6111,1.2187A14.1474,14.1474,0,0,1,22.321,46.6483Z"/></svg>