<svg xmlns="http://www.w3.org/2000/svg" width="69" height="69" viewBox="0 0 69 69"><title>icon_4</title><path d="M52.6827,24.473a20.8862,20.8862,0,0,0-7.6408-7.6408,21.1289,21.1289,0,0,0-21.0743,0,20.8862,20.8862,0,0,0-7.6408,7.6408,20.5519,20.5519,0,0,0-2.815,10.542A20.9876,20.9876,0,0,0,27.8646,54.94a1.2048,1.2048,0,0,0,1.0915-.1915,1.0592,1.0592,0,0,0,.3543-.8234c0-.0575,0-.5458-.01-1.4746s-.01-1.7426-.01-2.432l-.6319.1053a7.7036,7.7036,0,0,1-1.5128.0958,12.0081,12.0081,0,0,1-1.8959-.1915,4.157,4.157,0,0,1-1.8288-.8234A3.4821,3.4821,0,0,1,22.2154,47.52l-.2777-.632A6.9314,6.9314,0,0,0,21.076,45.49a3.2985,3.2985,0,0,0-1.1873-1.0341l-.1915-.134a2.2725,2.2725,0,0,1-.3543-.3256,1.736,1.736,0,0,1-.2489-.383c-.0575-.1244-.01-.23.134-.3159a1.7141,1.7141,0,0,1,.7948-.1245l.5457.0862a3.9027,3.9027,0,0,1,1.35.6606A4.4639,4.4639,0,0,1,23.24,45.3367a4.821,4.821,0,0,0,1.5128,1.7043,3.2075,3.2075,0,0,0,1.79.5841,8.1689,8.1689,0,0,0,1.5608-.1341,5.5838,5.5838,0,0,0,1.2255-.4117,4.4047,4.4047,0,0,1,1.3405-2.815,19.5365,19.5365,0,0,1-2.8054-.4883,11.2367,11.2367,0,0,1-2.5661-1.0628,7.3746,7.3746,0,0,1-2.2022-1.8288A8.7529,8.7529,0,0,1,21.66,38.0119a13.6281,13.6281,0,0,1-.565-4.098,7.9562,7.9562,0,0,1,2.164-5.63,7.3481,7.3481,0,0,1,.1915-5.5726,3.8559,3.8559,0,0,1,2.3554.3734,16.4836,16.4836,0,0,1,2.2788,1.0533c.4787.2873.8713.5362,1.1586.7373a19.7806,19.7806,0,0,1,10.494,0l1.0341-.6511A14.37,14.37,0,0,1,43.29,23.0176a3.5128,3.5128,0,0,1,2.2118-.2968,7.2729,7.2729,0,0,1,.22,5.5726,7.9972,7.9972,0,0,1,2.164,5.63,13.8037,13.8037,0,0,1-.565,4.1172,8.3951,8.3951,0,0,1-1.4458,2.8725,7.659,7.659,0,0,1-2.2118,1.8192,10.9817,10.9817,0,0,1-2.566,1.0628,18.085,18.085,0,0,1-2.8055.4884,4.87,4.87,0,0,1,1.4171,3.8778v5.7641a1.0986,1.0986,0,0,0,.3447.8234,1.1714,1.1714,0,0,0,1.082.1915,20.6158,20.6158,0,0,0,10.35-7.5833,20.3953,20.3953,0,0,0,4.0023-12.342A20.4505,20.4505,0,0,0,52.6827,24.473Z"/></svg>