<?xml version="1.0" encoding="utf-8"?><svg id="22222percent_animation_ActionScript3.0" image-rendering="auto" baseProfile="basic" version="1.1" x="0px" y="0px" width="255" height="309" xmlns="http://www.w3.org/2000/svg" xmlns:xlink="http://www.w3.org/1999/xlink"><g id="Scene-1r1" overflow="visible"><g display="none"><path id="Layer24_0_1_STROKES" stroke="#000" stroke-width="41.2" stroke-linejoin="miter" stroke-linecap="round" stroke-miterlimit="4" fill="none" d="M127 150.8L127 197Q127 214.35 114.75 226.65 102.45 238.9 85.1 238.9 67.7 238.9 55.45 226.65 43.15 214.35 43.15 197"/><animate attributeName="display" fill="freeze" repeatCount="1" dur="0.833s" keyTimes="0;.95;1" values="none;inline;inline"/></g><g display="none"><path id="Layer23_0_1_STROKES" stroke="#000" stroke-width="41.2" stroke-linejoin="miter" stroke-linecap="round" stroke-miterlimit="4" fill="none" d="M45.35 200.25Q46.05 216.7 58.25 227.95 61.85 231.25 65.75 233.55 75.35 238.95 87.15 238.55 97.2 238.15 105.35 233.55 110.75 230.45 115.4 225.6 127 213.3 127 196.2L127 150.55"/><animate attributeName="display" fill="freeze" repeatCount="1" dur="0.833s" keyTimes="0;.9;.95;1" values="none;inline;none;none"/></g><g display="none"><path id="Layer22_0_1_STROKES" stroke="#000" stroke-width="41.2" stroke-linejoin="miter" stroke-linecap="round" stroke-miterlimit="4" fill="none" d="M47.55 203.5Q49 219.05 61.1 229.25 64.6 232.25 68.5 234.25 77.9 239 89.25 238.15 98.85 237.45 106.55 232.6 111.65 229.45 116.05 224.55 127 212.2 127 195.35L127 150.25"/><animate attributeName="display" fill="freeze" repeatCount="1" dur="0.833s" keyTimes="0;.85;.9;1" values="none;inline;none;none"/></g><g display="none"><path id="Layer21_0_1_STROKES" stroke="#000" stroke-width="41.2" stroke-linejoin="miter" stroke-linecap="round" stroke-miterlimit="4" fill="none" d="M49.75 206.75Q51.9 221.4 63.9 230.6 67.4 233.25 71.2 235 80.45 239.05 91.3 237.8 100.5 236.7 107.75 231.7 112.55 228.4 116.7 223.55 127 211.15 127 194.55L127 150"/><animate attributeName="display" fill="freeze" repeatCount="1" dur="0.833s" keyTimes="0;.8;.85;1" values="none;inline;none;none"/></g><g display="none"><path id="Layer20_0_1_STROKES" stroke="#000" stroke-width="41.2" stroke-linejoin="miter" stroke-linecap="round" stroke-miterlimit="4" fill="none" d="M52 210.05Q54.8 223.75 66.7 231.9 70.2 234.3 73.95 235.7 83 239.15 93.35 237.45 102.15 235.95 108.95 230.8 113.45 227.4 117.35 222.5 127 210.1 127 193.7L127 149.75"/><animate attributeName="display" fill="freeze" repeatCount="1" dur="0.833s" keyTimes="0;.75;.8;1" values="none;inline;none;none"/></g><g display="none"><path id="Layer19_0_1_STROKES" stroke="#000" stroke-width="41.2" stroke-linejoin="miter" stroke-linecap="round" stroke-miterlimit="4" fill="none" d="M54.2 213.3Q57.75 226.05 69.5 233.2 72.95 235.3 76.65 236.45 85.6 239.2 95.45 237.05 103.85 235.25 110.15 229.85 114.35 226.35 117.95 221.45 127 209.05 127 192.9L127 149.5"/><animate attributeName="display" fill="freeze" repeatCount="1" dur="0.833s" keyTimes="0;.7;.75;1" values="none;inline;none;none"/></g><g display="none"><path id="Layer18_0_1_STROKES" stroke="#000" stroke-width="41.2" stroke-linejoin="miter" stroke-linecap="round" stroke-miterlimit="4" fill="none" d="M56.4 216.55Q60.65 228.4 72.35 234.5 75.75 236.3 79.4 237.15 88.15 239.25 97.5 236.7 105.5 234.5 111.35 228.95 115.25 225.35 118.6 220.4 127 207.95 127 192.05L127 149.2"/><animate attributeName="display" fill="freeze" repeatCount="1" dur="0.833s" keyTimes="0;.65;.7;1" values="none;inline;none;none"/></g><g display="none"><path id="Layer17_0_1_STROKES" stroke="#000" stroke-width="41.2" stroke-linejoin="miter" stroke-linecap="round" stroke-miterlimit="4" fill="none" d="M58.6 219.8Q63.55 230.75 75.15 235.8 78.55 237.3 82.1 237.9 90.7 239.3 99.6 236.3 107.15 233.8 112.55 228 116.15 224.3 119.25 219.35 127 206.9 127 191.25L127 148.95"/><animate attributeName="display" fill="freeze" repeatCount="1" dur="0.833s" keyTimes="0;.6;.65;1" values="none;inline;none;none"/></g><g display="none"><path id="Layer16_0_1_STROKES" stroke="#000" stroke-width="41.2" stroke-linejoin="miter" stroke-linecap="round" stroke-miterlimit="4" fill="none" d="M60.8 223.05Q66.5 233.1 77.95 237.15 81.3 238.3 84.8 238.65 93.25 239.35 101.65 235.95 108.8 233.05 113.75 227.1 117.05 223.25 119.9 218.35 127 205.85 127 190.45L127 148.7"/><animate attributeName="display" fill="freeze" repeatCount="1" dur="0.833s" keyTimes="0;.55;.6;1" values="none;inline;none;none"/></g><g display="none"><path id="Layer15_0_1_STROKES" stroke="#000" stroke-width="41.2" stroke-linejoin="miter" stroke-linecap="round" stroke-miterlimit="4" fill="none" d="M63 226.3Q69.4 235.45 80.75 238.45 84.1 239.3 87.55 239.35 95.8 239.4 103.7 235.6 110.45 232.3 114.95 226.2 117.95 222.25 120.55 217.3 127 204.8 127 189.6L127 148.45"/><animate attributeName="display" fill="freeze" repeatCount="1" dur="0.833s" keyTimes="0;.5;.55;1" values="none;inline;none;none"/></g><g display="none"><path id="Layer14_0_1_STROKES" stroke="#000" stroke-width="41.2" stroke-linejoin="miter" stroke-linecap="round" stroke-miterlimit="4" fill="none" d="M65.25 229.6Q72.3 237.8 83.6 239.75 86.9 240.35 90.25 240.1 98.35 239.5 105.8 235.2 112.1 231.6 116.2 225.25 118.9 221.2 121.2 216.25 127 203.7 127 188.8L127 148.15"/><animate attributeName="display" fill="freeze" repeatCount="1" dur="0.833s" keyTimes="0;.45;.5;1" values="none;inline;none;none"/></g><g display="none"><path id="Layer13_0_1_STROKES" stroke="#000" stroke-width="41.2" stroke-linejoin="miter" stroke-linecap="round" stroke-miterlimit="4" fill="none" d="M67.45 232.85Q75.2 240.15 86.4 241.05 89.7 241.35 93 240.8 100.9 239.55 107.85 234.85 113.75 230.85 117.4 224.35 119.8 220.2 121.85 215.2 127 202.65 127 187.95L127 147.9"/><animate attributeName="display" fill="freeze" repeatCount="1" dur="0.833s" keyTimes="0;.4;.45;1" values="none;inline;none;none"/></g><g display="none"><path id="Layer12_0_1_STROKES" stroke="#000" stroke-width="41.2" stroke-linejoin="miter" stroke-linecap="round" stroke-miterlimit="4" fill="none" d="M69.65 236.1Q78.15 242.5 89.2 242.4 92.45 242.35 95.7 241.55 103.45 239.6 109.9 234.5 115.4 230.1 118.6 223.45 120.7 219.15 122.5 214.2 127 201.6 127 187.15L127 147.65"/><animate attributeName="display" fill="freeze" repeatCount="1" dur="0.833s" keyTimes="0;.35;.4;1" values="none;inline;none;none"/></g><g display="none"><path id="Layer11_0_1_STROKES" stroke="#000" stroke-width="41.2" stroke-linejoin="miter" stroke-linecap="round" stroke-miterlimit="4" fill="none" d="M71.85 239.35Q81.05 244.85 92 243.7 95.25 243.35 98.4 242.3 106 239.65 112 234.1 117.05 229.4 119.8 222.5 121.6 218.1 123.15 213.15 127 200.55 127 186.35L127 147.4"/><animate attributeName="display" fill="freeze" repeatCount="1" dur="0.833s" keyTimes="0;.3;.35;1" values="none;inline;none;none"/></g><g display="none"><path id="Layer10_0_1_STROKES" stroke="#000" stroke-width="41.2" stroke-linejoin="miter" stroke-linecap="round" stroke-miterlimit="4" fill="none" d="M74.05 242.6Q83.95 247.2 94.85 245 98.05 244.35 101.15 243 108.55 239.7 114.05 233.75 118.7 228.65 121 221.6 122.5 217.1 123.8 212.1 127 199.45 127 185.5L127 147.1"/><animate attributeName="display" fill="freeze" repeatCount="1" dur="0.833s" keyTimes="0;.25;.3;1" values="none;inline;none;none"/></g><g display="none"><path id="Layer9_0_1_STROKES" stroke="#000" stroke-width="41.2" stroke-linejoin="miter" stroke-linecap="round" stroke-miterlimit="4" fill="none" d="M76.25 245.85Q86.9 249.5 97.65 246.3 100.8 245.35 103.85 243.75 111.15 239.75 116.15 233.35 120.4 227.95 122.2 220.65 123.4 216.05 124.4 211.05 127 198.4 127 184.7L127 146.85"/><animate attributeName="display" fill="freeze" repeatCount="1" dur="0.833s" keyTimes="0;.2;.25;1" values="none;inline;none;none"/></g><g display="none"><path id="Layer8_0_1_STROKES" stroke="#000" stroke-width="41.2" stroke-linejoin="miter" stroke-linecap="round" stroke-miterlimit="4" fill="none" d="M78.5 249.15Q89.8 251.85 100.45 247.6 103.6 246.4 106.6 244.45 113.7 239.85 118.2 233 122.05 227.2 123.4 219.75 124.3 215.05 125.05 210 127 197.35 127 183.85L127 146.6"/><animate attributeName="display" fill="freeze" repeatCount="1" dur="0.833s" keyTimes="0;.15;.2;1" values="none;inline;none;none"/></g><g display="none"><path id="Layer7_0_1_STROKES" stroke="#000" stroke-width="41.2" stroke-linejoin="miter" stroke-linecap="round" stroke-miterlimit="4" fill="none" d="M80.7 252.4Q92.7 254.2 103.25 248.95 106.4 247.4 109.3 245.2 116.25 239.9 120.25 232.65 123.7 226.45 124.6 218.85 125.2 214 125.7 209 127 196.3 127 183.05L127 146.35"/><animate attributeName="display" fill="freeze" repeatCount="1" dur="0.833s" keyTimes="0;.1;.15;1" values="none;inline;none;none"/></g><g display="none"><path id="Layer6_0_1_STROKES" stroke="#000" stroke-width="41.2" stroke-linejoin="miter" stroke-linecap="round" stroke-miterlimit="4" fill="none" d="M82.9 255.65Q95.65 256.55 106.1 250.25 109.15 248.4 112.05 245.9 118.8 239.95 122.35 232.25 125.35 225.75 125.8 217.9 126.1 213 126.35 207.95 127 195.2 127 182.2L127 146.05"/><animate attributeName="display" fill="freeze" repeatCount="1" dur="0.833s" keyTimes="0;.05;.1;1" values="none;inline;none;none"/></g><g><path id="Layer5_0_1_STROKES" stroke="#000" stroke-width="41.2" stroke-linejoin="miter" stroke-linecap="round" stroke-miterlimit="4" fill="none" d="M127 145.8L127 217Q127 234.35 114.75 246.65 102.45 258.9 85.1 258.9"/><animate attributeName="display" fill="freeze" repeatCount="1" dur="0.833s" keyTimes="0;.05;1" values="inline;none;none"/></g><path id="Layer1_0_1_STROKES" stroke="#000" stroke-width="41.2" stroke-linejoin="miter" stroke-linecap="round" stroke-miterlimit="4" fill="none" d="M170.8 144.95L170.8 289"/><path id="Layer2_0_1_STROKES" stroke="#000" stroke-width="41.2" stroke-linejoin="miter" stroke-linecap="round" stroke-miterlimit="4" fill="none" d="M218.15 144.95L218.15 289"/><path fill="#000" stroke="none" d="M219.15 97.3Q199.85 78 172.5 78 145.2 78 125.9 97.3 106.55 116.6 106.55 143.95 106.55 171.25 125.9 190.6 145.2 209.9 172.5 209.9 199.85 209.9 219.15 190.6 238.45 171.25 238.45 143.95 238.45 116.6 219.15 97.3Z"/><path fill="#FFF" stroke="none" d="M193.75 122.7Q184.95 113.9 172.5 113.9 160.05 113.9 151.25 122.7 142.45 131.5 142.45 143.95 142.45 156.4 151.25 165.2 160.05 174 172.5 174 184.95 174 193.75 165.2 202.55 156.4 202.55 143.95 202.55 131.5 193.75 122.7Z"/><g id="eye" transform="translate(173.85 130.3)"><path fill="#000" stroke="none" d="M8.75 17.5Q12.4 17.5 14.95 14.95 17.5 12.35 17.5 8.75 17.5 5.1 14.95 2.55 12.4 0 8.75 0 5.15 0 2.6 2.55 0 5.1 0 8.75 0 12.35 2.6 14.95 5.15 17.5 8.75 17.5Z"/></g><g id="crown" transform="translate(112.5 0)"><path fill="#B62121" stroke="none" d="M51.7 48.8Q47.1 38.45 41.05 30.3 33.95 20.75 25.6 15.2 15.9 8.8 5 8.15L4.7 8.05 4.7 8.15 4.1 8.15 4.05 9.2 4.85 9.2Q7.1 9.8 9.85 12.5 13.4 15.85 16.55 22.2 24.85 38.75 27.65 67.85L27.7 68.35 57.7 65.95 57.5 65.4Q55.55 57.45 51.7 48.8Z"/><path fill="#EAA92B" stroke="none" d="M8.2 8.75Q8.35 7.05 7.3 5.75 6.25 4.45 4.55 4.3 2.85 4.1 1.5 5.2 .2 6.25 .05 7.95 -.15 9.65 .95 10.95 2 12.25 3.7 12.4 5.4 12.6 6.7 11.5 8 10.45 8.2 8.75Z"/><path fill="#53FC18" stroke="none" d="M63.6 28.85Q57.3 18.75 49.45 12.55 40.3 5.4 29.45 3.9L29.1 3.8 29.1 3.9 28.55 3.8 28.45 4.8 29.25 4.9Q31.5 5.7 34 8.65 37.3 12.25 39.9 18.85 46.7 35.6 47.3 65.2L47.2 65.65 77.25 65.7 77.2 65.15Q75.8 56.95 72.7 48.15 68.95 37.45 63.6 28.85Z"/><path fill="#EAA92B" stroke="none" d="M32.6 4.8Q32.9 3.15 31.95 1.75 31 .35 29.3 .05 27.65 -.25 26.25 .7 24.85 1.65 24.55 3.35 24.25 5 25.2 6.4 26.15 7.8 27.85 8.1 29.5 8.4 30.9 7.45 32.3 6.5 32.6 4.8Z"/><path fill="#58E236" stroke="none" d="M123.85 32.1Q128.2 26.65 132.4 23.95 135.5 21.9 137.95 21.7L138.75 21.8 138.95 20.8 138.35 20.75 138.35 20.65 138.05 20.65Q117.65 17.75 98.25 35.05 90.65 41.85 84.05 51 78.6 58.65 75.05 66.1L74.8 66.7 103.7 75.05 103.8 74.55Q112.55 46.6 123.85 32.1Z"/><path fill="#EAA92B" stroke="none" d="M142.1 18.5Q141.05 17.2 139.35 17 137.65 16.85 136.35 17.9 135 19 134.85 20.65 134.65 22.35 135.75 23.65 136.8 24.95 138.5 25.15 140.2 25.35 141.5 24.25 142.8 23.2 143 21.5 143.15 19.8 142.1 18.5Z"/><path fill="#B62121" stroke="none" d="M100.1 24.2Q103.45 18.15 107.25 14.75 110.25 12.15 112.4 11.75L113.2 11.75 113.2 10.75 112.65 10.75 112.65 10.7 112.3 10.75Q101.35 10.95 91.4 16.85 82.75 22 75.3 31.2 68.9 39.05 63.8 49.25 59.65 57.55 57.25 65.55L57.1 66.1 87 69.8 87 69.25Q91.25 39.9 100.1 24.2Z"/><path fill="#EAA92B" stroke="none" d="M113.5 14.95Q115.2 14.85 116.35 13.55 117.5 12.3 117.4 10.6 117.3 8.9 116 7.8 114.75 6.7 113.05 6.75 111.35 6.85 110.25 8.1 109.15 9.4 109.2 11.1 109.3 12.8 110.55 13.9 111.8 15.05 113.5 14.95Z"/><path fill="#EAA92B" stroke="none" d="M107.4 78L108.45 67.9 23.45 59.3 22.45 69.4 107.4 78Z"/></g><g display="none"><g id="text1" transform="matrix(.7 0 0 .7 10.85 111.25)" opacity="0"><animateTransform attributeName="transform" additive="replace" type="translate" dur="0.833s" keyTimes="0;.45;.95;1" values="45.483,133.704;45.483,133.704;45.45,133.7;45.45,133.7" fill="freeze"/><animateTransform attributeName="transform" additive="sum" type="scale" dur="0.833s" keyTimes="0;.45;.95;1" values=".7,.7;.7,.7;1,1;1,1" fill="freeze"/><animateTransform attributeName="transform" additive="sum" type="translate" dur="0.833s" keyTimes="0;.45;.95;1" values="-49.55,-32.15;-49.55,-32.15;-49.45,-32;-49.45,-32" fill="freeze"/><animate attributeName="opacity" dur="0.833s" keyTimes="0;.45;.95;1" values="0;0;1;1" fill="freeze"/><path fill="#000" stroke="none" d="M18.05 38.95L18.05 32.6 4.4 32.6 4.4 38.95 18.05 38.95M46.8 20.3Q46.05 18.35 44.45 16.9 43.05 15.55 40.7 14.7 38.6 13.9 35.8 13.9 33.35 13.9 31.1 14.6 29 15.15 27.15 16.6 25.55 17.95 24.3 20 23.2 22.05 22.75 24.85L27.5 25.65 28.05 25.65Q29.15 25.65 29.7 25.15 30.4 24.65 30.75 23.5 30.9 23.05 31.4 22.25 31.85 21.65 32.4 21.25 33.05 20.75 33.75 20.55 34.6 20.3 35.35 20.3 37.5 20.3 38.55 21.5 39.6 22.65 39.6 24.85 39.6 26.2 39.3 27.4 38.85 28.8 38.3 29.8 37.6 31 36.6 32.25 35.5 33.6 34.25 34.85L23.6 45.55Q22.85 46.25 22.55 47.05 22.25 47.9 22.25 48.65L22.25 51.15 48.15 51.15 48.15 46.6Q48.15 45.5 47.4 44.8 46.75 44.1 45.45 44.1L38.55 44.1Q37.15 44.1 36 44.35L33.25 44.95 43.25 34.65Q44.4 33.3 45.55 31.65 46.55 30.1 47.05 28.35 47.65 26.65 47.65 24.6 47.65 22.3 46.8 20.3M68.2 19.45Q67.5 17.65 66.35 16.5 65.05 15.2 63.55 14.65 61.85 13.95 60 13.95 58.15 13.95 56.45 14.65 54.85 15.25 53.7 16.5 52.55 17.65 51.85 19.45 51.2 21.05 51.2 23.25 51.2 25.3 51.85 26.95 52.55 28.65 53.7 29.8 54.75 30.9 56.45 31.65 58.05 32.3 60 32.3 61.85 32.3 63.35 31.65 65 30.95 66.15 29.8 67.45 28.6 68.1 26.95 68.85 25.25 68.85 23.25 68.85 21.05 68.2 19.45M61.1 19.05Q61.6 19.2 62 19.75 62.35 20.15 62.6 21.1 62.85 22 62.85 23.25 62.85 24.35 62.6 25.25 62.35 26.2 62 26.55 61.6 27.05 61.1 27.25 60.5 27.45 60 27.45 59.5 27.45 58.9 27.25 58.35 27 58.05 26.55 57.7 26.1 57.45 25.25 57.25 24.15 57.25 23.25 57.25 22.2 57.45 21.1 57.7 20.3 58.05 19.75 58.35 19.2 58.9 19.05 59.3 18.85 60 18.85 60.7 18.85 61.1 19.05M84.75 33.9Q83.15 33.25 81.2 33.25 79.25 33.25 77.65 33.9 75.95 34.65 74.85 35.8 73.7 37 73.05 38.7 72.4 40.35 72.4 42.5 72.4 44.6 73.05 46.25 73.75 47.9 74.85 49.1 76 50.25 77.65 50.95 79.25 51.6 81.2 51.6 82.95 51.6 84.55 50.95 86.2 50.25 87.35 49.1 88.65 47.9 89.3 46.25 90.05 44.55 90.05 42.5 90.05 40.35 89.4 38.7 88.75 37 87.55 35.8 86.4 34.55 84.75 33.9M82.3 38.35Q82.8 38.5 83.2 39.05 83.6 39.6 83.8 40.4 84.05 41.3 84.05 42.5 84.05 43.65 83.8 44.55 83.55 45.4 83.2 45.8 82.9 46.25 82.3 46.5 81.85 46.7 81.2 46.7 80.5 46.7 80.1 46.5 79.55 46.25 79.2 45.8 78.9 45.3 78.65 44.55 78.45 43.45 78.45 42.5 78.45 41.5 78.65 40.4 78.85 39.65 79.2 39.05 79.6 38.5 80.1 38.35 80.5 38.15 81.2 38.15 81.85 38.15 82.3 38.35M82.9 14.3Q82 14.3 81.35 14.7 81 14.9 80.45 15.45L52.65 51.15 58.55 51.15Q59.4 51.15 59.9 50.85 60.4 50.6 60.85 50.05L88.65 14.3 82.9 14.3Z"/></g><animate attributeName="display" fill="freeze" repeatCount="1" dur="0.833s" keyTimes="0;.45;1" values="none;inline;inline"/></g></g></svg>