<svg xmlns="http://www.w3.org/2000/svg" width="41.7" height="37.575" viewBox="0 0 41.7 37.575"><defs><style>.a{stroke:#000;stroke-width:2px;}</style></defs><title>pic_arrow</title><path class="a" d="M34.2,36.275a.9667.9667,0,0,0,1.4,0l4.8-4.8a.9667.9667,0,0,0,0-1.4l-4.8-4.8a.99.99,0,0,0-1.4,1.4l3.1,3.1H32.8c-3.3,0-6.4-2-8.6-5.6l-7.3-11.8c-2.6-4.2-6.3-6.5-10.3-6.5H2a.9448.9448,0,0,0-1,1,.9448.9448,0,0,0,1,1H6.6c3.3,0,6.4,2,8.6,5.6l7.3,11.8c2.6,4.2,6.3,6.5,10.3,6.5h4.5l-3.1,3.1A.9667.9667,0,0,0,34.2,36.275Zm4.1-5.6Z"/><path class="a" d="M40.4115,6.21l-4.8-4.8a.9667.9667,0,0,0-1.4,0,.9667.9667,0,0,0,0,1.4l3.1,3.1h-4.6c-4,0-7.8,2.4-10.3,6.5l-.7,1.2a1.0765,1.0765,0,0,0,.3,1.4.9015.9015,0,0,0,.5.1.8907.8907,0,0,0,.8-.5l.7-1.2c2.2-3.6,5.4-5.6,8.6-5.6h4.6l-3.1,3.1a.9667.9667,0,0,0,0,1.4.9667.9667,0,0,0,1.4,0l4.8-4.8A.7957.7957,0,0,0,40.4115,6.21Z"/><path class="a" d="M16.7373,25.2826l1.2-2a1.0124,1.0124,0,1,0-1.7-1.1l-1.2,2c-2.2,3.6-5.4,5.6-8.6,5.6h-4.5a1,1,0,1,0,0,2h4.5C10.3373,31.7826,14.1373,29.4826,16.7373,25.2826Z"/></svg>