<svg width="88" height="21" viewBox="0 0 88 21" fill="none" xmlns="http://www.w3.org/2000/svg">
<path d="M12.7676 4.62722C12.6308 4.84599 12.485 5.01006 12.33 5.11945C12.1842 5.22883 11.9928 5.28352 11.7558 5.28352C11.5461 5.28352 11.3182 5.21972 11.0721 5.0921C10.8351 4.95537 10.5617 4.80497 10.2517 4.6409C9.95094 4.47682 9.60456 4.33098 9.21261 4.20336C8.82065 4.06663 8.374 3.99827 7.87266 3.99827C7.00671 3.99827 6.35953 4.18513 5.93111 4.55886C5.51181 4.92347 5.30216 5.42025 5.30216 6.0492C5.30216 6.45028 5.42977 6.78298 5.685 7.04733C5.94022 7.31167 6.27293 7.53955 6.68312 7.73097C7.10242 7.92239 7.57642 8.10014 8.1051 8.26422C8.6429 8.41917 9.18982 8.59692 9.74585 8.79746C10.3019 8.98888 10.8442 9.21676 11.3729 9.4811C11.9107 9.74545 12.3847 10.0827 12.7949 10.4929C13.2142 10.9031 13.5515 11.4044 13.8067 11.9969C14.0619 12.5803 14.1895 13.2867 14.1895 14.1162C14.1895 15.0369 14.03 15.8983 13.711 16.7004C13.392 17.5025 12.9271 18.2044 12.3164 18.806C11.7147 19.3985 10.9673 19.868 10.074 20.2143C9.18982 20.5516 8.18258 20.7202 7.05229 20.7202C6.43245 20.7202 5.79894 20.6564 5.15175 20.5288C4.51368 20.4012 3.89385 20.2234 3.29224 19.9956C2.69063 19.7586 2.12548 19.4806 1.5968 19.1615C1.06811 18.8425 0.607791 18.487 0.215835 18.095L1.58313 15.9347C1.68339 15.7706 1.82468 15.6385 2.00699 15.5382C2.18929 15.4379 2.38527 15.3878 2.59492 15.3878C2.86838 15.3878 3.14184 15.4744 3.41529 15.6476C3.69787 15.8208 4.01234 16.0122 4.35872 16.2218C4.71422 16.4315 5.11985 16.6229 5.57561 16.7961C6.03138 16.9693 6.56918 17.0559 7.18902 17.0559C8.02762 17.0559 8.67936 16.8736 9.14424 16.509C9.60912 16.1353 9.84156 15.5473 9.84156 14.7452C9.84156 14.2803 9.71395 13.902 9.45872 13.6103C9.20349 13.3186 8.86623 13.0771 8.44692 12.8857C8.03674 12.6942 7.5673 12.5256 7.03861 12.3798C6.50993 12.2339 5.96757 12.0744 5.41154 11.9012C4.85551 11.7189 4.31315 11.5001 3.78446 11.2449C3.25578 10.9806 2.78178 10.6387 2.36248 10.2194C1.95229 9.79102 1.61959 9.26234 1.36436 8.63338C1.10913 7.99531 0.981517 7.2114 0.981517 6.28164C0.981517 5.53419 1.13192 4.80497 1.43272 4.09398C1.73353 3.38299 2.17562 2.74948 2.75899 2.19344C3.34237 1.63741 4.05792 1.19532 4.90564 0.867173C5.75336 0.529909 6.72414 0.361277 7.81797 0.361277C8.42869 0.361277 9.02119 0.411411 9.59545 0.511679C10.1788 0.602832 10.7303 0.744118 11.2499 0.935538C11.7694 1.11784 12.2525 1.34117 12.6992 1.60551C13.155 1.86074 13.5606 2.15243 13.9161 2.48058L12.7676 4.62722ZM16.4864 20.5015V0.0331262H20.725V7.5669C21.2354 7.12936 21.7869 6.77843 22.3794 6.51408C22.981 6.24063 23.6966 6.1039 24.526 6.1039C25.3008 6.1039 25.9845 6.24063 26.577 6.51408C27.1786 6.77843 27.6845 7.15215 28.0947 7.63526C28.5049 8.10926 28.8148 8.67896 29.0244 9.34437C29.2341 10.0007 29.3389 10.7162 29.3389 11.491V20.5015H25.1003V11.491C25.1003 10.7983 24.9408 10.2605 24.6218 9.87762C24.3027 9.48566 23.8333 9.28968 23.2134 9.28968C22.7486 9.28968 22.311 9.38995 21.9008 9.59049C21.4907 9.79102 21.0987 10.0599 20.725 10.3972V20.5015H16.4864ZM36.3142 6.32266V15.3194C36.3142 16.0213 36.4737 16.5637 36.7928 16.9465C37.1118 17.3294 37.5812 17.5208 38.2011 17.5208C38.666 17.5208 39.0989 17.4251 39.5 17.2336C39.9102 17.0422 40.3067 16.7733 40.6896 16.4269V6.32266H44.9282V20.5015H42.303C41.7743 20.5015 41.4279 20.2645 41.2638 19.7905L41.004 18.9701C40.7306 19.2344 40.448 19.476 40.1563 19.6948C39.8646 19.9044 39.5501 20.0867 39.2129 20.2417C38.8847 20.3875 38.5292 20.5015 38.1464 20.5835C37.7636 20.6747 37.3443 20.7202 36.8885 20.7202C36.1137 20.7202 35.4255 20.5881 34.8239 20.3237C34.2314 20.0503 33.73 19.672 33.3199 19.1889C32.9097 18.7058 32.5998 18.1361 32.3901 17.4798C32.1804 16.8235 32.0756 16.1033 32.0756 15.3194V6.32266H36.3142ZM48.8407 20.5015V9.23499L47.911 9.04357C47.5919 8.97065 47.3322 8.85671 47.1316 8.70175C46.9402 8.54679 46.8445 8.31891 46.8445 8.0181V6.35001H48.8407V5.54331C48.8407 4.73205 48.9684 3.99827 49.2236 3.34197C49.4879 2.68567 49.8616 2.12508 50.3448 1.6602C50.837 1.19532 51.434 0.835271 52.1359 0.580043C52.8378 0.324816 53.6354 0.197202 54.5287 0.197202C54.875 0.197202 55.1941 0.21999 55.4858 0.265567C55.7866 0.302027 56.0965 0.365834 56.4155 0.456986L56.3335 2.5216C56.3244 2.66744 56.2834 2.7905 56.2104 2.89076C56.1466 2.98192 56.0646 3.0594 55.9643 3.1232C55.8641 3.17789 55.7501 3.21891 55.6225 3.24626C55.504 3.2736 55.3855 3.28728 55.267 3.28728C54.8933 3.28728 54.5606 3.32374 54.2689 3.39666C53.9772 3.46958 53.7311 3.60176 53.5305 3.79318C53.3391 3.97548 53.1933 4.22159 53.093 4.53151C52.9927 4.83232 52.9426 5.21516 52.9426 5.68004V6.35001H56.2788V9.24866H53.0793V20.5015H48.8407ZM58.7483 20.5015V9.23499L57.8185 9.04357C57.4995 8.97065 57.2397 8.85671 57.0391 8.70175C56.8477 8.54679 56.752 8.31891 56.752 8.0181V6.35001H58.7483V5.85778C58.7483 5.13768 58.8668 4.4358 59.1038 3.75216C59.3407 3.0594 59.7054 2.44867 60.1976 1.91999C60.6898 1.38219 61.3188 0.953768 62.0844 0.634734C62.8501 0.306585 63.7617 0.14251 64.819 0.14251C65.7123 0.14251 66.5509 0.169856 67.3348 0.224548C68.1279 0.279239 68.93 0.306584 69.7413 0.306584H72.1204V20.5015H67.9091V3.15055C67.4442 3.13232 66.993 3.11409 66.5555 3.09586C66.1271 3.06851 65.7761 3.05484 65.5027 3.05484C64.6367 3.05484 63.9759 3.29639 63.5201 3.7795C63.0735 4.2535 62.8501 4.94626 62.8501 5.85778V6.35001H65.9129V9.24866H62.9869V20.5015H58.7483ZM81.6284 6.1039C82.5672 6.1039 83.4241 6.24974 84.1989 6.54143C84.9828 6.83312 85.6528 7.25698 86.2088 7.81301C86.7739 8.36904 87.2115 9.05269 87.5214 9.86394C87.8404 10.6661 87.9999 11.5776 87.9999 12.5985C87.9999 12.9176 87.9863 13.1773 87.9589 13.3779C87.9316 13.5784 87.8814 13.7379 87.8085 13.8564C87.7356 13.9749 87.6353 14.057 87.5077 14.1025C87.3892 14.1481 87.2343 14.1709 87.0428 14.1709H78.8664C79.0032 15.3559 79.3632 16.2173 79.9466 16.7551C80.53 17.2838 81.282 17.5481 82.2026 17.5481C82.6949 17.5481 83.1187 17.4889 83.4742 17.3704C83.8297 17.2519 84.1442 17.1197 84.4176 16.9739C84.7002 16.828 84.9554 16.6958 85.1833 16.5773C85.4203 16.4588 85.6664 16.3996 85.9217 16.3996C86.2589 16.3996 86.5141 16.5226 86.6873 16.7688L87.9179 18.2865C87.4804 18.7878 87.0064 19.198 86.4959 19.517C85.9946 19.8269 85.475 20.073 84.9372 20.2554C84.4085 20.4285 83.8753 20.547 83.3375 20.6108C82.8088 20.6838 82.3029 20.7202 81.8198 20.7202C80.8262 20.7202 79.8919 20.5607 79.0168 20.2417C78.1509 19.9135 77.3898 19.4304 76.7335 18.7924C76.0863 18.1543 75.5713 17.3613 75.1884 16.4133C74.8147 15.4653 74.6278 14.3623 74.6278 13.1044C74.6278 12.1564 74.7874 11.2586 75.1064 10.4109C75.4345 9.56314 75.8994 8.82025 76.501 8.18218C77.1117 7.54411 77.8455 7.03821 78.7024 6.66448C79.5683 6.29076 80.5436 6.1039 81.6284 6.1039ZM81.7104 9.0299C80.8991 9.0299 80.2656 9.26234 79.8099 9.72722C79.3541 10.183 79.0533 10.8438 78.9075 11.7098H84.1989C84.1989 11.3725 84.1533 11.0444 84.0621 10.7253C83.9801 10.4063 83.8388 10.1237 83.6383 9.87762C83.4469 9.62239 83.1916 9.4173 82.8726 9.26234C82.5536 9.10738 82.1662 9.0299 81.7104 9.0299Z" fill="black"/>
</svg>
