<svg xmlns="http://www.w3.org/2000/svg" xmlns:xlink="http://www.w3.org/1999/xlink" width="303.6481" height="518.6307" viewBox="0 0 303.6481 518.6307"><defs><style>.a{fill:#fff;}.b{fill:#b62121;}.c{opacity:0.4;}.d{fill:url(#a);}.e{fill:#eaa92b;}.f{fill:#53fc18;}.g{fill:url(#b);}.h{fill:#58e236;}.i{fill:url(#c);}.j{fill:url(#d);}</style><linearGradient id="a" x1="133.9202" y1="712.5443" x2="9.4785" y2="679.3153" gradientTransform="matrix(1, 0, 0, -1, 0, 877.827)" gradientUnits="userSpaceOnUse"><stop offset="0" stop-color="#fff"/><stop offset="0.1205" stop-color="#fbfbfb"/><stop offset="0.2454" stop-color="#eee"/><stop offset="0.3724" stop-color="#dadada"/><stop offset="0.5008" stop-color="#bcbcbc"/><stop offset="0.6304" stop-color="#979797"/><stop offset="0.761" stop-color="#696969"/><stop offset="0.8898" stop-color="#343434"/><stop offset="1"/></linearGradient><linearGradient id="b" x1="148.3824" y1="744.9524" x2="24.7634" y2="711.9419" xlink:href="#a"/><linearGradient id="c" x1="172.3217" y1="815.6043" x2="121.3497" y2="801.9934" gradientTransform="matrix(1, 0, 0, -1, 0, 877.827)" gradientUnits="userSpaceOnUse"><stop offset="0" stop-color="#fff"/><stop offset="0.2264" stop-color="#fcfcfc"/><stop offset="0.3626" stop-color="#f4f4f4"/><stop offset="0.475" stop-color="#e6e6e6"/><stop offset="0.5744" stop-color="#d1d1d1"/><stop offset="0.6652" stop-color="#b7b7b7"/><stop offset="0.7498" stop-color="#979797"/><stop offset="0.8297" stop-color="#707070"/><stop offset="0.9057" stop-color="#444"/><stop offset="0.9761" stop-color="#121212"/><stop offset="1"/></linearGradient><linearGradient id="d" x1="152.5709" y1="790.6832" x2="95.6928" y2="775.4953" xlink:href="#c"/></defs><title>themonster</title><path d="M292.2341,317.6447a70.9051,70.9051,0,1,1,11.414-140.8832V91.5722q-5.6542-.41-11.414-.4184A155.58,155.58,0,0,0,175.1718,349.2175a48.78,48.78,0,0,0,6.51,8.0749l71.31,71.3116a189.5575,189.5575,0,0,1,50.6562,90.0267V316.7178A71.3638,71.3638,0,0,1,292.2341,317.6447Z"/><path class="a" d="M221.3289,246.74a70.8928,70.8928,0,0,0,82.3192,69.978V176.7615A70.8923,70.8923,0,0,0,221.3289,246.74Zm35.1942,23.804a20.664,20.664,0,1,1,20.664-20.664A20.664,20.664,0,0,1,256.5231,270.5438Z"/><circle cx="256.5231" cy="249.8798" r="20.6641" transform="matrix(0.9871, -0.1602, 0.1602, 0.9871, -36.7139, 44.317)"/><path class="b" d="M110.1752,202.5488c-33.125-15.104-57.24-20.674-73.6623-21.648-8.2447-.429-14.6366.211-19.2731,1.556-4.2711,1.246-7.1831,2.813-8.7179,4.402l-.67,1.16-1.4385-.985.4688-.812-.1158-.067c.067-.116.3168-.281.3837-.397,13.9325-21.19,37.3763-30.237,60.8536-32.924,23.8423-2.784,48.1823,1.059,63.1433,5.367l.945.236-21.155,44.397Z"/><g class="c"><g class="c"><path class="d" d="M110.1752,202.5488c-33.125-15.104-57.24-20.674-73.6623-21.648-8.2447-.429-14.6366.211-19.2731,1.556-4.2711,1.246-7.1831,2.813-8.7179,4.402l-.67,1.16-1.4385-.985.4688-.812-.1158-.067c.067-.116.3168-.281.3837-.397,13.9325-21.19,37.3763-30.237,60.8536-32.924,23.8423-2.784,48.1823,1.059,63.1433,5.367l.945.236-21.155,44.397Z"/></g></g><path class="e" d="M10.6062,181.7768a6.698,6.698,0,1,0,1.506,9.345A6.6894,6.6894,0,0,0,10.6062,181.7768Z"/><path class="f" d="M122.5422,172.5688c-31.95-17.674-55.4075-25.184-71.69-27.47-8.1415-1.143-14.564-.985-19.2983-.006-4.4845.814-7.4453,2.198-9.2118,3.653-.2009.348-.5176.629-.7856,1.093l-1.3227-.918c.134-.232.4507-.513.5847-.745l-.1158-.067c.0669-.116.3167-.281.3837-.397,15.6026-20.071,39.6506-27.223,63.2505-27.982,24.0818-.791,47.9468,4.944,62.5368,10.429l.878.352-24.697,42.508Z"/><g class="c"><g class="c"><path class="g" d="M122.5422,172.5688c-31.95-17.674-55.4075-25.184-71.69-27.47-8.1415-1.143-14.564-.985-19.2983-.006-4.4845.814-7.4453,2.198-9.2118,3.653-.2009.348-.5176.629-.7856,1.093l-1.3227-.918c.134-.232.4507-.513.5847-.745l-.1158-.067c.0669-.116.3167-.281.3837-.397,15.6026-20.071,39.6506-27.223,63.2505-27.982,24.0818-.791,47.9468,4.944,62.5368,10.429l.878.352-24.697,42.508Z"/></g></g><path class="e" d="M24.9826,143.9458a6.6976,6.6976,0,1,0,.7509,9.437A6.6865,6.6865,0,0,0,24.9826,143.9458Z"/><path class="h" d="M181.9582,100.1458c-24.685-26.7807-37.552-47.8209-43.695-63.123a62.7649,62.7649,0,0,1-4.615-18.7509c-.209-4.4517.405-7.6547,1.428-9.6937.201-.348.517-.6291.785-1.0932l-1.256-1.0343c-.133.232-.45.5131-.584.7452l-.116-.0669-.268.464c-15.718,20.004-16.993,44.9444-12.168,68.1469,4.922,23.5679,16.125,45.35,25.052,58.2369l.61.816,35.455-34.13Z"/><g class="c"><g class="c"><path class="i" d="M181.9582,100.1458c-24.685-26.7807-37.552-47.8209-43.695-63.123a62.7649,62.7649,0,0,1-4.615-18.7509c-.209-4.4517.405-7.6547,1.428-9.6937.201-.348.517-.6291.785-1.0932l-1.256-1.0343c-.133.232-.45.5131-.584.7452l-.116-.0669-.268.464c-15.718,20.004-16.993,44.9444-12.168,68.1469,4.922,23.5679,16.125,45.35,25.052,58.2369l.61.816,35.455-34.13Z"/></g></g><path class="e" d="M138.8812,1.2662a6.6976,6.6976,0,1,0,1.496,9.3465A6.69,6.69,0,0,0,138.8812,1.2662Z"/><path class="b" d="M160.7022,119.5808c-28.656-22.577-44.721-41.2871-53.094-55.4017-4.244-7.0907-6.52-13.0448-7.491-17.7817-.873-4.3711-.856-7.61-.065-9.7823.201-.348.402-.696.669-1.16l-1.389-.8024-.469.8121-.116-.0669a.8053.8053,0,0,0-.152.5309c-12.3781,22.2419-9.7527,47.114-1.321,69.15,8.577,22.586,23.144,42.287,33.904,53.604l.677.7,29.657-39.334Z"/><g class="c"><g class="c"><path class="j" d="M160.7022,119.5808c-28.656-22.577-44.721-41.2871-53.094-55.4017-4.244-7.0907-6.52-13.0448-7.491-17.7817-.873-4.3711-.856-7.61-.065-9.7823.201-.348.402-.696.669-1.16l-1.389-.8024-.469.8121-.116-.0669a.8053.8053,0,0,0-.152.5309c-12.3781,22.2419-9.7527,47.114-1.321,69.15,8.577,22.586,23.144,42.287,33.904,53.604l.677.7,29.657-39.334Z"/></g></g><path class="e" d="M105.4772,37.6194a6.6857,6.6857,0,1,0-8.988,2.9658A6.6891,6.6891,0,0,0,105.4772,37.6194Z"/><path class="e" d="M94.6852,201.4878l13.448,9.702,81.7-113.335-13.448-9.701Z"/></svg>