<svg width="55" height="29" viewBox="0 0 55 29" fill="none" xmlns="http://www.w3.org/2000/svg">
<path d="M12.7693 27.267C11.0827 18.9307 8.89026 13.6302 6.81824 10.3776C5.78223 8.76336 4.77032 7.65507 3.90296 6.93227C3.10788 6.28176 2.40918 5.96854 1.87913 5.87217C1.78276 5.87217 1.68638 5.87217 1.59001 5.89626L1.56592 5.51077C1.6382 5.51077 1.71048 5.51077 1.78276 5.48668V5.46259C1.83094 5.46259 1.85504 5.46259 1.90322 5.48668C7.83016 5.24575 12.7211 8.42605 16.4314 12.4978C20.19 16.6418 22.768 21.7496 23.9967 25.1949L24.069 25.4118L12.7934 27.4597L12.7693 27.267Z" fill="#B62121"/>
<path d="M1.54197 7.14912C2.39357 7.14912 3.08393 6.45876 3.08393 5.60715C3.08393 4.75555 2.39357 4.06519 1.54197 4.06519C0.690362 4.06519 0 4.75555 0 5.60715C0 6.45876 0.690362 7.14912 1.54197 7.14912Z" fill="#EAA92B"/>
<path d="M20.0933 25.5081C19.0814 17.0514 17.3226 11.5823 15.5156 8.18511C14.6241 6.47449 13.7086 5.29392 12.8894 4.52294C12.1425 3.80014 11.4679 3.43874 10.962 3.31828C10.8656 3.31828 10.7692 3.31828 10.6729 3.31828V2.93278C10.7451 2.93278 10.8174 2.93278 10.8897 2.93278V2.90869C10.9379 2.90869 10.962 2.93278 11.0102 2.93278C16.9371 3.17372 21.5389 6.71542 24.9119 11.0763C28.3573 15.5094 30.5016 20.81 31.4412 24.3517L31.4894 24.5685L20.0933 25.7009V25.5081Z" fill="#53FC18"/>
<path d="M12.189 3.13731C12.2574 2.28843 11.6246 1.54487 10.7758 1.47652C9.92689 1.40817 9.18332 2.04091 9.11497 2.88979C9.04662 3.73867 9.67936 4.48223 10.5282 4.55058C11.3771 4.61893 12.1207 3.98619 12.189 3.13731Z" fill="#EAA92B"/>
<path d="M41.898 26.8815C43.5846 18.5452 45.8011 13.2447 47.8732 9.99211C48.9092 8.37786 49.9211 7.26957 50.7884 6.54677C51.6076 5.89626 52.2822 5.58305 52.8123 5.48667C52.9086 5.48667 53.005 5.48667 53.1014 5.51077L53.1255 5.12527C53.0532 5.12527 52.9809 5.12527 52.9086 5.10118V5.07709C52.8605 5.07709 52.8364 5.07709 52.7882 5.10118C46.8612 4.86025 41.9703 8.01646 38.26 12.0882C34.4773 16.2322 31.8753 21.34 30.6465 24.7853L30.5742 25.0022L41.8498 27.0742L41.898 26.8815Z" fill="#58E236"/>
<path d="M53.1494 6.78773C54.001 6.78773 54.6914 6.09737 54.6914 5.24576C54.6914 4.39416 54.001 3.7038 53.1494 3.7038C52.2978 3.7038 51.6074 4.39416 51.6074 5.24576C51.6074 6.09737 52.2978 6.78773 53.1494 6.78773Z" fill="#EAA92B"/>
<path d="M35.3209 25.484C35.6823 16.9791 37.0315 11.3895 38.5735 7.87188C39.3445 6.11308 40.1637 4.86023 40.9105 4.01697C41.6092 3.24599 42.2357 2.8364 42.7416 2.66775C42.838 2.66775 42.9344 2.64365 43.0307 2.64365L43.0067 2.23407C42.9344 2.23407 42.8621 2.25816 42.7898 2.25816V2.23407C42.7416 2.23407 42.7175 2.25816 42.6693 2.25816C36.7906 2.93277 32.4538 6.85997 29.4181 11.4618C26.3341 16.16 24.5753 21.605 23.9007 25.1949L23.8525 25.4117L35.3209 25.6768V25.484Z" fill="#B62121"/>
<path d="M43.2725 3.85348C44.1137 3.72012 44.6874 2.93014 44.5541 2.08901C44.4207 1.24788 43.6307 0.674117 42.7896 0.807478C41.9485 0.940839 41.3747 1.73082 41.5081 2.57195C41.6414 3.41308 42.4314 3.98684 43.2725 3.85348Z" fill="#EAA92B"/>
<path d="M43.3676 24.183H10.8418V28.0621H43.3676V24.183Z" fill="#EAA92B"/>
</svg>
