<svg xmlns="http://www.w3.org/2000/svg" width="69" height="69" viewBox="0 0 69 69"><title>icon_5</title><path d="M45.5184,31.6691a22.6189,22.6189,0,0,0-10.442-2.6829l2.5089-9.514,5.6272,1.6823a4.1592,4.1592,0,0,0,8.3173-.116,4.04,4.04,0,0,0-4.1622-4.184,3.9821,3.9821,0,0,0-3.6113,2.0449L37.1,16.9052a1.1644,1.1644,0,0,0-1.4575.8122L32.6689,29.0223A22.2434,22.2434,0,0,0,23.46,31.6691c-4.2784-4.01-10.1375,2.5307-6.3233,7.063-2.741,8.5711,7.1064,15.25,17.36,15.25,10.3333,0,20.072-6.7947,17.36-15.25C55.6559,34.2144,49.84,27.6664,45.5184,31.6691ZM47.36,19.1749a1.7435,1.7435,0,0,1,1.8418,1.8709,1.842,1.842,0,1,1-3.6837-.0073A1.7365,1.7365,0,0,1,47.36,19.1749ZM21.4,33.0252a13.2844,13.2844,0,0,0-3.0239,3.176C17.7817,34.0186,19.6671,32.1332,21.4,33.0252Zm13.096,18.6361c-13.8284,0-20.7173-11.1092-10.7974-17.4759a19.6411,19.6411,0,0,1,10.7974-2.9005c5.8084,0,8.47,1.8346,10.7974,2.9005C55.1846,40.5231,48.4191,51.6613,34.4962,51.6613Zm16.1345-15.46a13.4537,13.4537,0,0,0-3.031-3.176C49.3618,32.1187,51.2108,34.04,50.6307,36.2012Z"/><path d="M39.6052,45.4863c-1.7113,2.3495-8.4407,2.3785-10.2028,0a1.1617,1.1617,0,0,0-1.9216,1.3053c2.4582,3.7127,11.5733,3.72,14.0388,0A1.1588,1.1588,0,0,0,39.6052,45.4863Z"/><path d="M31.1976,39.9212a3.43,3.43,0,1,0-3.43,3.4155A3.3263,3.3263,0,0,0,31.1976,39.9212Zm-4.5395-.0072a1.11,1.11,0,1,1,1.11,1.095A1.0257,1.0257,0,0,1,26.6581,39.914Z"/><path d="M41.0176,36.4985a3.4155,3.4155,0,1,0,3.43,3.4155A3.3494,3.3494,0,0,0,41.0176,36.4985Zm0,4.5032a1.095,1.095,0,1,1,1.1095-1.095A1.0257,1.0257,0,0,1,41.0176,41.0017Z"/></svg>