<svg xmlns="http://www.w3.org/2000/svg" width="31.1" height="41.609" viewBox="0 0 31.1 41.609"><title>pic_fire</title><path d="M31,24.309c-.5-6.2-3.4-10.1-5.9-13.5-2.4-3.2-4.4-5.9-4.4-9.9a1.02,1.02,0,0,0-.5-.8.6194.6194,0,0,0-.8.1,21.7726,21.7726,0,0,0-8.1,11.7,36.4415,36.4415,0,0,0-.9,8.8c-3.5-.8-4.3-6-4.3-6.1a.6338.6338,0,0,0-.5-.6,1.0954,1.0954,0,0,0-.8,0c-.2,0-4.5,2.2-4.8,11.1v.9a15.55,15.55,0,1,0,31.1,0C31.1,25.509,31,24.309,31,24.309Zm-15.4,15.5a5.3618,5.3618,0,0,1-5.2-5.5v-.3a7.1034,7.1034,0,0,1,.5-2.7,3.1666,3.1666,0,0,0,2.9,2.1.8963.8963,0,0,0,.9-.9,17.106,17.106,0,0,1,.3-3.9,8.2918,8.2918,0,0,1,1.8-3.3,11.6416,11.6416,0,0,0,1.8,3.3,9.9418,9.9418,0,0,1,2.2,5.4v.5A5.3834,5.3834,0,0,1,15.6,39.809Z"/></svg>