<?xml version="1.0" standalone="no"?>
<!DOCTYPE svg PUBLIC "-//W3C//DTD SVG 20010904//EN"
 "http://www.w3.org/TR/2001/REC-SVG-20010904/DTD/svg10.dtd">
<svg version="1.0" xmlns="http://www.w3.org/2000/svg"
 width="596.000000pt" height="596.000000pt" viewBox="0 0 596.000000 596.000000"
 preserveAspectRatio="xMidYMid meet">
<metadata>
Created by potrace 1.11, written by Peter Selinger 2001-2013
</metadata>
<g transform="translate(0.000000,596.000000) scale(0.100000,-0.100000)"
fill="#000000" stroke="none">
<path d="M4612 4444 c-45 -23 -83 -75 -89 -124 -3 -22 -8 -40 -12 -41 -81 -11
-262 -70 -376 -123 -397 -186 -762 -551 -1043 -1043 -37 -65 -74 -130 -81
-145 -8 -16 -17 -28 -21 -28 -4 0 -12 12 -19 28 -7 15 -55 90 -106 167 -233
347 -499 622 -785 808 -72 46 -271 149 -345 177 -94 36 -241 74 -367 95 -30 5
-38 10 -38 26 0 37 -32 90 -71 116 -78 52 -184 31 -235 -47 -69 -104 -5 -243
120 -257 57 -7 109 11 141 49 l25 30 33 -25 c172 -132 342 -394 480 -742 58
-146 132 -364 118 -349 -5 5 -37 43 -71 84 -96 115 -304 318 -415 406 -163
129 -333 231 -515 312 -107 47 -314 103 -430 118 -36 4 -68 9 -72 10 -5 1 -28
2 -51 3 -42 1 -44 3 -55 39 -13 44 -64 95 -107 109 -151 48 -281 -126 -190
-256 33 -48 69 -67 132 -70 59 -3 99 14 137 59 l26 31 44 -30 c233 -160 477
-530 661 -1001 31 -80 60 -154 65 -165 30 -71 125 -385 176 -585 19 -74 37
-142 40 -151 3 -12 -5 -15 -48 -14 -93 3 -86 20 -86 -216 l0 -209 1773 0 1773
0 0 210 c1 155 -2 210 -11 211 -7 1 -25 3 -42 4 -16 2 -33 3 -36 4 -4 0 4 45
18 99 14 53 27 105 29 115 2 10 6 27 9 37 3 10 8 27 10 37 6 32 55 195 90 303
148 458 318 814 514 1080 67 90 208 234 275 279 l48 34 25 -32 c77 -98 233
-80 284 33 24 52 23 90 0 143 -52 113 -209 130 -285 30 -14 -18 -27 -44 -29
-58 -4 -22 -10 -25 -73 -30 -180 -17 -267 -36 -429 -91 -368 -124 -797 -446
-1081 -811 -20 -26 -38 -47 -39 -47 -2 0 25 117 49 215 25 98 94 301 143 413
92 215 218 410 322 497 29 25 35 27 45 13 33 -44 127 -66 186 -41 126 51 144
213 33 297 -35 26 -129 32 -171 10z"/>
</g>
</svg>
